<svg xmlns="http://www.w3.org/2000/svg" version="1.1" xmlns:xlink="http://www.w3.org/1999/xlink" xmlns:svgjs="http://svgjs.com/svgjs" width="1440" height="560" preserveAspectRatio="none" viewBox="0 0 1440 560"><g mask="url(&quot;#SvgjsMask1015&quot;)" fill="none"><rect width="1440" height="560" x="0" y="0" fill="rgba(35, 32, 40, 1)"></rect><path d="M-240.17 284.01C-113.37 278.06-23.31 56.66 215.49 60.01 454.3 63.36 506.8 523.08 671.16 570.6" stroke="rgba(218, 236, 255, 0.58)" stroke-width="2"></path><path d="M-197.29 468.55C-24.35 464.71 123.32 227.19 451.38 227.75 779.44 228.31 905.4 645.8 1100.05 665.65" stroke="rgba(218, 236, 255, 0.58)" stroke-width="2"></path><path d="M-125.71 396.94C50.06 395.58 209.46 222.36 555.63 223.34 901.8 224.32 1037.6 626.52 1236.97 642.9" stroke="rgba(218, 236, 255, 0.58)" stroke-width="2"></path><path d="M-28.94 234.84C102.44 234.09 263.42 102.79 483.27 117.24 703.11 131.69 619.22 574.23 739.37 666.54" stroke="rgba(218, 236, 255, 0.58)" stroke-width="2"></path><path d="M-222.33 353.19C-60.93 351.23 157.92 166.9 396.3 168.39 634.67 169.88 586.52 527.78 705.61 572.6" stroke="rgba(218, 236, 255, 0.58)" stroke-width="2"></path></g><defs><mask id="SvgjsMask1015"><rect width="1440" height="560" fill="#ffffff"></rect></mask></defs></svg>