<svg xmlns="http://www.w3.org/2000/svg" version="1.1" xmlns:xlink="http://www.w3.org/1999/xlink" xmlns:svgjs="http://svgjs.com/svgjs" width="1440" height="560" preserveAspectRatio="none" viewBox="0 0 1440 560"><g mask="url(&quot;#SvgjsMask1005&quot;)" fill="none"><rect width="1440" height="560" x="0" y="0" fill="rgba(35, 32, 40, 1)"></rect><path d="M16.97 -44.81L81.92 -7.31L81.92 67.69L16.97 105.19L-47.98 67.69L-47.98 -7.31zM81.92 67.69L146.88 105.19L146.88 180.19L81.92 217.69L16.97 180.19L16.97 105.19zM16.97 180.19L81.92 217.69L81.92 292.69L16.97 330.19L-47.98 292.69L-47.98 217.69zM81.92 292.69L146.88 330.19L146.88 405.19L81.92 442.69L16.97 405.19L16.97 330.19zM81.92 517.69L146.88 555.19L146.88 630.19L81.92 667.69L16.97 630.19L16.97 555.19zM211.83 292.69L276.78 330.19L276.78 405.19L211.83 442.69L146.88 405.19L146.88 330.19zM146.88 405.19L211.83 442.69L211.83 517.69L146.88 555.19L81.92 517.69L81.92 442.69zM211.83 517.69L276.78 555.19L276.78 630.19L211.83 667.69L146.88 630.19L146.88 555.19zM276.78 180.19L341.74 217.69L341.74 292.69L276.78 330.19L211.83 292.69L211.83 217.69zM276.78 405.19L341.74 442.69L341.74 517.69L276.78 555.19L211.83 517.69L211.83 442.69zM341.74 517.69L406.69 555.19L406.69 630.19L341.74 667.69L276.78 630.19L276.78 555.19zM406.69 -44.81L471.65 -7.31L471.65 67.69L406.69 105.19L341.74 67.69L341.74 -7.31zM471.65 67.69L536.6 105.19L536.6 180.19L471.65 217.69L406.69 180.19L406.69 105.19zM406.69 180.19L471.65 217.69L471.65 292.69L406.69 330.19L341.74 292.69L341.74 217.69zM471.65 292.69L536.6 330.19L536.6 405.19L471.65 442.69L406.69 405.19L406.69 330.19zM406.69 405.19L471.65 442.69L471.65 517.69L406.69 555.19L341.74 517.69L341.74 442.69zM471.65 517.69L536.6 555.19L536.6 630.19L471.65 667.69L406.69 630.19L406.69 555.19zM601.55 67.69L666.51 105.19L666.51 180.19L601.55 217.69L536.6 180.19L536.6 105.19zM601.55 292.69L666.51 330.19L666.51 405.19L601.55 442.69L536.6 405.19L536.6 330.19zM731.46 67.69L796.42 105.19L796.42 180.19L731.46 217.69L666.51 180.19L666.51 105.19zM666.51 180.19L731.46 217.69L731.46 292.69L666.51 330.19L601.55 292.69L601.55 217.69zM731.46 292.69L796.42 330.19L796.42 405.19L731.46 442.69L666.51 405.19L666.51 330.19zM796.41 -44.81L861.37 -7.31L861.37 67.69L796.41 105.19L731.46 67.69L731.46 -7.31zM796.41 180.19L861.37 217.69L861.37 292.69L796.41 330.19L731.46 292.69L731.46 217.69zM861.37 292.69L926.32 330.19L926.32 405.19L861.37 442.69L796.41 405.19L796.41 330.19zM796.41 405.19L861.37 442.69L861.37 517.69L796.41 555.19L731.46 517.69L731.46 442.69zM926.32 -44.81L991.28 -7.31L991.28 67.69L926.32 105.19L861.37 67.69L861.37 -7.31zM991.28 67.69L1056.23 105.19L1056.23 180.19L991.28 217.69L926.32 180.19L926.32 105.19zM1056.23 -44.81L1121.18 -7.31L1121.18 67.69L1056.23 105.19L991.28 67.69L991.28 -7.31zM1121.18 67.69L1186.14 105.19L1186.14 180.19L1121.18 217.69L1056.23 180.19L1056.23 105.19zM1056.23 405.19L1121.18 442.69L1121.18 517.69L1056.23 555.19L991.28 517.69L991.28 442.69zM1186.14 180.19L1251.09 217.69L1251.09 292.69L1186.14 330.19L1121.18 292.69L1121.18 217.69zM1251.09 517.69L1316.04 555.19L1316.04 630.19L1251.09 667.69L1186.14 630.19L1186.14 555.19zM1510.91 292.69L1575.86 330.19L1575.86 405.19L1510.91 442.69L1445.95 405.19L1445.95 330.19zM1510.91 517.69L1575.86 555.19L1575.86 630.19L1510.91 667.69L1445.95 630.19L1445.95 555.19z" stroke="rgba(80, 167, 11, 0)" stroke-width="2"></path><path d="M9.47 -44.81 a7.5 7.5 0 1 0 15 0 a7.5 7.5 0 1 0 -15 0zM74.42 -7.31 a7.5 7.5 0 1 0 15 0 a7.5 7.5 0 1 0 -15 0zM74.42 67.69 a7.5 7.5 0 1 0 15 0 a7.5 7.5 0 1 0 -15 0zM9.47 105.19 a7.5 7.5 0 1 0 15 0 a7.5 7.5 0 1 0 -15 0zM-55.48 67.69 a7.5 7.5 0 1 0 15 0 a7.5 7.5 0 1 0 -15 0zM-55.48 -7.31 a7.5 7.5 0 1 0 15 0 a7.5 7.5 0 1 0 -15 0zM139.38 105.19 a7.5 7.5 0 1 0 15 0 a7.5 7.5 0 1 0 -15 0zM139.38 180.19 a7.5 7.5 0 1 0 15 0 a7.5 7.5 0 1 0 -15 0zM74.42 217.69 a7.5 7.5 0 1 0 15 0 a7.5 7.5 0 1 0 -15 0zM9.47 180.19 a7.5 7.5 0 1 0 15 0 a7.5 7.5 0 1 0 -15 0zM74.42 292.69 a7.5 7.5 0 1 0 15 0 a7.5 7.5 0 1 0 -15 0zM9.47 330.19 a7.5 7.5 0 1 0 15 0 a7.5 7.5 0 1 0 -15 0zM-55.48 292.69 a7.5 7.5 0 1 0 15 0 a7.5 7.5 0 1 0 -15 0zM-55.48 217.69 a7.5 7.5 0 1 0 15 0 a7.5 7.5 0 1 0 -15 0zM139.38 330.19 a7.5 7.5 0 1 0 15 0 a7.5 7.5 0 1 0 -15 0zM139.38 405.19 a7.5 7.5 0 1 0 15 0 a7.5 7.5 0 1 0 -15 0zM74.42 442.69 a7.5 7.5 0 1 0 15 0 a7.5 7.5 0 1 0 -15 0zM9.47 405.19 a7.5 7.5 0 1 0 15 0 a7.5 7.5 0 1 0 -15 0zM74.42 517.69 a7.5 7.5 0 1 0 15 0 a7.5 7.5 0 1 0 -15 0zM139.38 555.19 a7.5 7.5 0 1 0 15 0 a7.5 7.5 0 1 0 -15 0zM139.38 630.19 a7.5 7.5 0 1 0 15 0 a7.5 7.5 0 1 0 -15 0zM74.42 667.69 a7.5 7.5 0 1 0 15 0 a7.5 7.5 0 1 0 -15 0zM9.47 630.19 a7.5 7.5 0 1 0 15 0 a7.5 7.5 0 1 0 -15 0zM9.47 555.19 a7.5 7.5 0 1 0 15 0 a7.5 7.5 0 1 0 -15 0zM204.33 292.69 a7.5 7.5 0 1 0 15 0 a7.5 7.5 0 1 0 -15 0zM269.28 330.19 a7.5 7.5 0 1 0 15 0 a7.5 7.5 0 1 0 -15 0zM269.28 405.19 a7.5 7.5 0 1 0 15 0 a7.5 7.5 0 1 0 -15 0zM204.33 442.69 a7.5 7.5 0 1 0 15 0 a7.5 7.5 0 1 0 -15 0zM204.33 517.69 a7.5 7.5 0 1 0 15 0 a7.5 7.5 0 1 0 -15 0zM269.28 555.19 a7.5 7.5 0 1 0 15 0 a7.5 7.5 0 1 0 -15 0zM269.28 630.19 a7.5 7.5 0 1 0 15 0 a7.5 7.5 0 1 0 -15 0zM204.33 667.69 a7.5 7.5 0 1 0 15 0 a7.5 7.5 0 1 0 -15 0zM269.28 180.19 a7.5 7.5 0 1 0 15 0 a7.5 7.5 0 1 0 -15 0zM334.24 217.69 a7.5 7.5 0 1 0 15 0 a7.5 7.5 0 1 0 -15 0zM334.24 292.69 a7.5 7.5 0 1 0 15 0 a7.5 7.5 0 1 0 -15 0zM204.33 217.69 a7.5 7.5 0 1 0 15 0 a7.5 7.5 0 1 0 -15 0zM334.24 442.69 a7.5 7.5 0 1 0 15 0 a7.5 7.5 0 1 0 -15 0zM334.24 517.69 a7.5 7.5 0 1 0 15 0 a7.5 7.5 0 1 0 -15 0zM399.19 555.19 a7.5 7.5 0 1 0 15 0 a7.5 7.5 0 1 0 -15 0zM399.19 630.19 a7.5 7.5 0 1 0 15 0 a7.5 7.5 0 1 0 -15 0zM334.24 667.69 a7.5 7.5 0 1 0 15 0 a7.5 7.5 0 1 0 -15 0zM399.19 -44.81 a7.5 7.5 0 1 0 15 0 a7.5 7.5 0 1 0 -15 0zM464.15 -7.31 a7.5 7.5 0 1 0 15 0 a7.5 7.5 0 1 0 -15 0zM464.15 67.69 a7.5 7.5 0 1 0 15 0 a7.5 7.5 0 1 0 -15 0zM399.19 105.19 a7.5 7.5 0 1 0 15 0 a7.5 7.5 0 1 0 -15 0zM334.24 67.69 a7.5 7.5 0 1 0 15 0 a7.5 7.5 0 1 0 -15 0zM334.24 -7.31 a7.5 7.5 0 1 0 15 0 a7.5 7.5 0 1 0 -15 0zM529.1 105.19 a7.5 7.5 0 1 0 15 0 a7.5 7.5 0 1 0 -15 0zM529.1 180.19 a7.5 7.5 0 1 0 15 0 a7.5 7.5 0 1 0 -15 0zM464.15 217.69 a7.5 7.5 0 1 0 15 0 a7.5 7.5 0 1 0 -15 0zM399.19 180.19 a7.5 7.5 0 1 0 15 0 a7.5 7.5 0 1 0 -15 0zM464.15 292.69 a7.5 7.5 0 1 0 15 0 a7.5 7.5 0 1 0 -15 0zM399.19 330.19 a7.5 7.5 0 1 0 15 0 a7.5 7.5 0 1 0 -15 0zM529.1 330.19 a7.5 7.5 0 1 0 15 0 a7.5 7.5 0 1 0 -15 0zM529.1 405.19 a7.5 7.5 0 1 0 15 0 a7.5 7.5 0 1 0 -15 0zM464.15 442.69 a7.5 7.5 0 1 0 15 0 a7.5 7.5 0 1 0 -15 0zM399.19 405.19 a7.5 7.5 0 1 0 15 0 a7.5 7.5 0 1 0 -15 0zM464.15 517.69 a7.5 7.5 0 1 0 15 0 a7.5 7.5 0 1 0 -15 0zM529.1 555.19 a7.5 7.5 0 1 0 15 0 a7.5 7.5 0 1 0 -15 0zM529.1 630.19 a7.5 7.5 0 1 0 15 0 a7.5 7.5 0 1 0 -15 0zM464.15 667.69 a7.5 7.5 0 1 0 15 0 a7.5 7.5 0 1 0 -15 0zM594.05 67.69 a7.5 7.5 0 1 0 15 0 a7.5 7.5 0 1 0 -15 0zM659.01 105.19 a7.5 7.5 0 1 0 15 0 a7.5 7.5 0 1 0 -15 0zM659.01 180.19 a7.5 7.5 0 1 0 15 0 a7.5 7.5 0 1 0 -15 0zM594.05 217.69 a7.5 7.5 0 1 0 15 0 a7.5 7.5 0 1 0 -15 0zM594.05 292.69 a7.5 7.5 0 1 0 15 0 a7.5 7.5 0 1 0 -15 0zM659.01 330.19 a7.5 7.5 0 1 0 15 0 a7.5 7.5 0 1 0 -15 0zM659.01 405.19 a7.5 7.5 0 1 0 15 0 a7.5 7.5 0 1 0 -15 0zM594.05 442.69 a7.5 7.5 0 1 0 15 0 a7.5 7.5 0 1 0 -15 0zM723.96 67.69 a7.5 7.5 0 1 0 15 0 a7.5 7.5 0 1 0 -15 0zM788.92 105.19 a7.5 7.5 0 1 0 15 0 a7.5 7.5 0 1 0 -15 0zM788.92 180.19 a7.5 7.5 0 1 0 15 0 a7.5 7.5 0 1 0 -15 0zM723.96 217.69 a7.5 7.5 0 1 0 15 0 a7.5 7.5 0 1 0 -15 0zM723.96 292.69 a7.5 7.5 0 1 0 15 0 a7.5 7.5 0 1 0 -15 0zM788.92 330.19 a7.5 7.5 0 1 0 15 0 a7.5 7.5 0 1 0 -15 0zM788.92 405.19 a7.5 7.5 0 1 0 15 0 a7.5 7.5 0 1 0 -15 0zM723.96 442.69 a7.5 7.5 0 1 0 15 0 a7.5 7.5 0 1 0 -15 0zM788.91 -44.81 a7.5 7.5 0 1 0 15 0 a7.5 7.5 0 1 0 -15 0zM853.87 -7.31 a7.5 7.5 0 1 0 15 0 a7.5 7.5 0 1 0 -15 0zM853.87 67.69 a7.5 7.5 0 1 0 15 0 a7.5 7.5 0 1 0 -15 0zM788.91 105.19 a7.5 7.5 0 1 0 15 0 a7.5 7.5 0 1 0 -15 0zM723.96 -7.31 a7.5 7.5 0 1 0 15 0 a7.5 7.5 0 1 0 -15 0zM788.91 180.19 a7.5 7.5 0 1 0 15 0 a7.5 7.5 0 1 0 -15 0zM853.87 217.69 a7.5 7.5 0 1 0 15 0 a7.5 7.5 0 1 0 -15 0zM853.87 292.69 a7.5 7.5 0 1 0 15 0 a7.5 7.5 0 1 0 -15 0zM788.91 330.19 a7.5 7.5 0 1 0 15 0 a7.5 7.5 0 1 0 -15 0zM918.82 330.19 a7.5 7.5 0 1 0 15 0 a7.5 7.5 0 1 0 -15 0zM918.82 405.19 a7.5 7.5 0 1 0 15 0 a7.5 7.5 0 1 0 -15 0zM853.87 442.69 a7.5 7.5 0 1 0 15 0 a7.5 7.5 0 1 0 -15 0zM788.91 405.19 a7.5 7.5 0 1 0 15 0 a7.5 7.5 0 1 0 -15 0zM853.87 517.69 a7.5 7.5 0 1 0 15 0 a7.5 7.5 0 1 0 -15 0zM788.91 555.19 a7.5 7.5 0 1 0 15 0 a7.5 7.5 0 1 0 -15 0zM723.96 517.69 a7.5 7.5 0 1 0 15 0 a7.5 7.5 0 1 0 -15 0zM918.82 -44.81 a7.5 7.5 0 1 0 15 0 a7.5 7.5 0 1 0 -15 0zM983.78 -7.31 a7.5 7.5 0 1 0 15 0 a7.5 7.5 0 1 0 -15 0zM983.78 67.69 a7.5 7.5 0 1 0 15 0 a7.5 7.5 0 1 0 -15 0zM918.82 105.19 a7.5 7.5 0 1 0 15 0 a7.5 7.5 0 1 0 -15 0zM1048.73 105.19 a7.5 7.5 0 1 0 15 0 a7.5 7.5 0 1 0 -15 0zM1048.73 180.19 a7.5 7.5 0 1 0 15 0 a7.5 7.5 0 1 0 -15 0zM983.78 217.69 a7.5 7.5 0 1 0 15 0 a7.5 7.5 0 1 0 -15 0zM918.82 180.19 a7.5 7.5 0 1 0 15 0 a7.5 7.5 0 1 0 -15 0zM1048.73 -44.81 a7.5 7.5 0 1 0 15 0 a7.5 7.5 0 1 0 -15 0zM1113.68 -7.31 a7.5 7.5 0 1 0 15 0 a7.5 7.5 0 1 0 -15 0zM1113.68 67.69 a7.5 7.5 0 1 0 15 0 a7.5 7.5 0 1 0 -15 0zM1178.64 105.19 a7.5 7.5 0 1 0 15 0 a7.5 7.5 0 1 0 -15 0zM1178.64 180.19 a7.5 7.5 0 1 0 15 0 a7.5 7.5 0 1 0 -15 0zM1113.68 217.69 a7.5 7.5 0 1 0 15 0 a7.5 7.5 0 1 0 -15 0zM1048.73 405.19 a7.5 7.5 0 1 0 15 0 a7.5 7.5 0 1 0 -15 0zM1113.68 442.69 a7.5 7.5 0 1 0 15 0 a7.5 7.5 0 1 0 -15 0zM1113.68 517.69 a7.5 7.5 0 1 0 15 0 a7.5 7.5 0 1 0 -15 0zM1048.73 555.19 a7.5 7.5 0 1 0 15 0 a7.5 7.5 0 1 0 -15 0zM983.78 517.69 a7.5 7.5 0 1 0 15 0 a7.5 7.5 0 1 0 -15 0zM983.78 442.69 a7.5 7.5 0 1 0 15 0 a7.5 7.5 0 1 0 -15 0zM1243.59 217.69 a7.5 7.5 0 1 0 15 0 a7.5 7.5 0 1 0 -15 0zM1243.59 292.69 a7.5 7.5 0 1 0 15 0 a7.5 7.5 0 1 0 -15 0zM1178.64 330.19 a7.5 7.5 0 1 0 15 0 a7.5 7.5 0 1 0 -15 0zM1113.68 292.69 a7.5 7.5 0 1 0 15 0 a7.5 7.5 0 1 0 -15 0zM1243.59 517.69 a7.5 7.5 0 1 0 15 0 a7.5 7.5 0 1 0 -15 0zM1308.54 555.19 a7.5 7.5 0 1 0 15 0 a7.5 7.5 0 1 0 -15 0zM1308.54 630.19 a7.5 7.5 0 1 0 15 0 a7.5 7.5 0 1 0 -15 0zM1243.59 667.69 a7.5 7.5 0 1 0 15 0 a7.5 7.5 0 1 0 -15 0zM1178.64 630.19 a7.5 7.5 0 1 0 15 0 a7.5 7.5 0 1 0 -15 0zM1178.64 555.19 a7.5 7.5 0 1 0 15 0 a7.5 7.5 0 1 0 -15 0zM1503.41 292.69 a7.5 7.5 0 1 0 15 0 a7.5 7.5 0 1 0 -15 0zM1568.36 330.19 a7.5 7.5 0 1 0 15 0 a7.5 7.5 0 1 0 -15 0zM1568.36 405.19 a7.5 7.5 0 1 0 15 0 a7.5 7.5 0 1 0 -15 0zM1503.41 442.69 a7.5 7.5 0 1 0 15 0 a7.5 7.5 0 1 0 -15 0zM1438.45 405.19 a7.5 7.5 0 1 0 15 0 a7.5 7.5 0 1 0 -15 0zM1438.45 330.19 a7.5 7.5 0 1 0 15 0 a7.5 7.5 0 1 0 -15 0zM1503.41 517.69 a7.5 7.5 0 1 0 15 0 a7.5 7.5 0 1 0 -15 0zM1568.36 555.19 a7.5 7.5 0 1 0 15 0 a7.5 7.5 0 1 0 -15 0zM1568.36 630.19 a7.5 7.5 0 1 0 15 0 a7.5 7.5 0 1 0 -15 0zM1503.41 667.69 a7.5 7.5 0 1 0 15 0 a7.5 7.5 0 1 0 -15 0zM1438.45 630.19 a7.5 7.5 0 1 0 15 0 a7.5 7.5 0 1 0 -15 0zM1438.45 555.19 a7.5 7.5 0 1 0 15 0 a7.5 7.5 0 1 0 -15 0z" fill="rgba(80, 167, 11, 0)"></path><path d="M19.45 -43.01L62.75 -18.01L62.75 31.99L19.45 56.99L-23.85 31.99L-23.85 -18.01zM192.66 406.99L235.96 431.99L235.96 481.99L192.66 506.99L149.36 481.99L149.36 431.99zM279.26 256.99L322.57 281.99L322.57 331.99L279.26 356.99L235.96 331.99L235.96 281.99zM365.87 406.99L409.17 431.99L409.17 481.99L365.87 506.99L322.57 481.99L322.57 431.99zM539.08 256.99L582.38 281.99L582.38 331.99L539.08 356.99L495.78 331.99L495.78 281.99zM625.69 -43.01L668.99 -18.01L668.99 31.99L625.69 56.99L582.38 31.99L582.38 -18.01zM625.69 406.99L668.99 431.99L668.99 481.99L625.69 506.99L582.38 481.99L582.38 431.99zM712.29 -43.01L755.59 -18.01L755.59 31.99L712.29 56.99L668.99 31.99L668.99 -18.01zM885.5 -43.01L928.8 -18.01L928.8 31.99L885.5 56.99L842.2 31.99L842.2 -18.01zM928.8 31.99L972.11 56.99L972.11 106.99L928.8 131.99L885.5 106.99L885.5 56.99zM1188.62 31.99L1231.92 56.99L1231.92 106.99L1188.62 131.99L1145.32 106.99L1145.32 56.99zM1361.83 31.99L1405.13 56.99L1405.13 106.99L1361.83 131.99L1318.53 106.99L1318.53 56.99zM1361.83 331.99L1405.13 356.99L1405.13 406.99L1361.83 431.99L1318.53 406.99L1318.53 356.99zM1405.13 406.99L1448.43 431.99L1448.43 481.99L1405.13 506.99L1361.83 481.99L1361.83 431.99z" stroke="rgba(85, 91, 97, 0.93)" stroke-width="2"></path></g><defs><mask id="SvgjsMask1005"><rect width="1440" height="560" fill="#ffffff"></rect></mask></defs></svg>